<svg xmlns="http://www.w3.org/2000/svg" id="Camada_1" viewBox="0 0 757.9 224.5" width="757.9" height="224.5" data-name="Camada 1">
  <defs>
    <style>
      .cls-1 {
        fill: #f99f1c;
      }

      .cls-1, .cls-2, .cls-3, .cls-4, .cls-5 {
        fill-rule: evenodd;
      }

      .cls-2 {
        fill: #d75226;
      }

      .cls-3 {
        fill: #f58220;
      }

      .cls-4 {
        fill: #fff;
      }

      .cls-5 {
        fill: #58595b;
      }
    </style>
  </defs>
  <title>Logo_Painel do Corretor</title>
  <g>
    <g>
      <polygon class="cls-1" points="0,55.8 96.7,0 193.3,55.8 193.3,92.3 159.1,112.3 193.3,132 193.3,168.7 96.7,224.5 0,168.7 0,112.3 0,55.8" />
      <polygon class="cls-2" points="193.3,168.1 193.3,168.7 96.7,224.5 0,168.7 0,168.1 96.7,112.3 193.3,168.1" />
      <polygon class="cls-3" points="96.7,112.3 0,55.8 0,168.1 96.7,112.3" />
      <polygon class="cls-3" points="96.7,112.3 193.3,55.8 193.3,92.3 159.1,112.3 193.3,132 193.3,168.1 96.7,112.3" />
      <polygon class="cls-4" points="32,74.3 32,150.2 96.7,187.6 161.1,150.4 130.1,132.5 116.3,140.4 116.3,140.4 96.7,151.8 63,132.4 63,92.2 96.7,72.7 116.4,84.1 130.2,92.1 161,74.1 96.7,36.9 32,74.3" />
    </g>
    <path class="cls-5" transform="translate(-7.5 -524.7)" d="M 243.2 582 v 25.1 a 18.6 18.6 0 0 0 8.4 1.7 q 6 0 8.7 -4.2 t 2.6 -10.9 q 0 -13.5 -10.5 -13.5 a 27 27 0 0 0 -9.2 1.7 Z m 24.3 11.7 a 33.1 33.1 0 0 1 -0.5 5.8 a 22 22 0 0 1 -1.6 5.2 a 13.5 13.5 0 0 1 -2.9 4.2 a 13 13 0 0 1 -4.6 2.7 a 18.7 18.7 0 0 1 -6.5 1 a 27.3 27.3 0 0 1 -8.2 -1.5 v 15.6 h -4.3 V 579.2 a 54.2 54.2 0 0 1 14.4 -2.5 q 6.7 0 10.5 3.8 t 3.8 13.2 Z m 32.5 -5 v 21.7 a 41.7 41.7 0 0 1 -14 2.2 a 16.2 16.2 0 0 1 -8.9 -2.3 q -3.5 -2.3 -3.5 -7.2 a 10.7 10.7 0 0 1 1.1 -5 a 7.6 7.6 0 0 1 3.1 -3.2 a 15 15 0 0 1 4.2 -1.6 a 22.5 22.5 0 0 1 4.8 -0.5 a 37 37 0 0 1 8.7 1.1 V 589 q 0 -4.4 -1.7 -6.4 t -6.6 -2 a 41.2 41.2 0 0 0 -10 1.6 l -0.8 -3.4 a 39.5 39.5 0 0 1 6 -1.4 a 35.4 35.4 0 0 1 5.8 -0.6 q 6.5 0 9.2 2.9 t 2.8 9.2 Z m -4.6 19.2 V 596.9 a 39.5 39.5 0 0 0 -7.8 -0.8 q -9.5 0 -9.5 6.8 t 9.3 6.1 a 27.1 27.1 0 0 0 8 -1.1 Z m 17.2 -30.6 v 34.5 h -4.3 V 577.3 Z m -4.3 -6.9 v -6.2 h 4.3 v 6.2 Z m 13.6 9.4 q 8.8 -3.4 15.5 -3.4 t 8.6 2.5 q 3 2.5 3 8.9 v 24 h -4.3 V 588.8 q 0 -5 -2.1 -6.8 t -6.5 -1.8 a 18.5 18.5 0 0 0 -9.8 2.3 v 29.1 h -4.3 V 579.8 Z m 51.3 32.9 q -7.9 0 -11.9 -4.7 t -4 -13.6 a 25.8 25.8 0 0 1 0.8 -6.7 a 19.9 19.9 0 0 1 2.5 -5.7 a 11.4 11.4 0 0 1 4.7 -4.1 a 15.9 15.9 0 0 1 7.1 -1.5 q 8.2 0 11.5 4.9 t 1.8 13 H 361.8 q 0 7.4 2.8 10.9 t 8.7 3.5 a 21.9 21.9 0 0 0 10.3 -2.3 l 0.8 3.7 a 27.2 27.2 0 0 1 -11.3 2.5 Z m 8.2 -22 q 0.6 -5 -1.8 -7.9 t -7.1 -2.9 a 10.6 10.6 0 0 0 -5.6 1.4 a 7.9 7.9 0 0 0 -3.3 3.5 a 23.2 23.2 0 0 0 -1.3 3.5 a 9.9 9.9 0 0 0 -0.4 2.4 Z m 13.3 -27.1 h 4.5 v 41.6 a 3.8 3.8 0 0 0 0.9 3 a 3.7 3.7 0 0 0 2.6 0.8 a 16.9 16.9 0 0 0 4.5 -0.6 l 0.3 3.3 a 18.6 18.6 0 0 1 -5.9 1 q -6.9 0 -6.9 -7.4 V 563.7 Z m 56 44.1 V 582.1 a 27.3 27.3 0 0 0 -8.9 -1.5 q -5.7 0 -8.2 3.9 t -2.5 11.4 q 0 7.1 3.2 10.1 t 8.9 3 a 27 27 0 0 0 7.6 -1.2 Z M 426 596 q 0 -19.2 15.7 -19.2 a 41.9 41.9 0 0 1 8.9 1.2 V 562.9 h 4.3 v 48 a 63.5 63.5 0 0 1 -13.3 1.9 Q 426 612.7 426 596 Z m 52.6 16.8 q -7.8 0 -11.4 -4.2 t -3.6 -14 q 0 -9.6 4 -13.9 t 11.4 -4.3 q 7.5 0 11.2 4.2 t 3.7 13.9 q 0 9.6 -4 13.9 t -11.4 4.3 Z m 0.2 -32.4 a 10.1 10.1 0 0 0 -7.8 3.1 q -2.9 3.1 -2.9 11.2 t 2.6 11 q 2.6 3.2 8 3.2 q 10.6 0 10.6 -14.2 q 0 -8.2 -2.6 -11.3 T 478.8 580.3 Z" />
    <path class="cls-5" transform="translate(-7.5 -524.7)" d="M 266 711.2 q -16.6 0 -26.1 -10 t -7 -30 q 2.4 -19.9 14.2 -30.2 a 40.7 40.7 0 0 1 27.8 -10.3 q 13.9 0 23.5 6.3 l -6 18 q -8.4 -4 -15.6 -4 q -16.6 0 -19 20.5 t 13.2 21.3 a 56.3 56.3 0 0 0 19.8 -3.1 l -1 17.8 q -14.8 3.9 -23.7 3.9 Z m 63.6 -0.1 q 18.3 0 28.4 -9.4 t 12.7 -31 q 2.7 -21.9 -4.7 -31.1 t -25.7 -9.2 q -17.7 0 -27.8 9.4 t -12.7 31 q -2.5 21.7 4.9 31 t 24.9 9.3 Z m 8.4 -61.7 q 5.4 0 7.6 4.4 t 0.7 17 q -2.7 21.4 -13.9 21.4 t -8.5 -21.4 q 1.5 -12.6 5 -17 a 11.1 11.1 0 0 1 9.1 -4.4 Z m 68.9 3.3 l -7 56.6 H 375 l 9.6 -77.7 h 22.2 l -0.6 8.4 a 26.5 26.5 0 0 1 21 -9.7 a 27.9 27.9 0 0 1 7.9 1.2 l -5.2 19.8 a 51.2 51.2 0 0 0 -9.4 -1.2 q -8.4 0 -13.5 2.7 Z m 58.4 0 q 5.1 -2.7 13.5 -2.7 a 51.2 51.2 0 0 1 9.4 1.2 l 5.2 -19.8 a 27.9 27.9 0 0 0 -7.9 -1.2 a 26.5 26.5 0 0 0 -21 9.7 l 0.6 -8.4 H 442.9 l -9.6 77.7 h 24.9 l 7 -56.6 Z m 72.2 -21.3 q 12 0 18.6 5.9 t 5.2 17.1 a 27.7 27.7 0 0 1 -7.6 16.3 a 33.4 33.4 0 0 1 -13.9 9 a 51.5 51.5 0 0 1 -15.6 2.4 a 28.8 28.8 0 0 1 -10.2 -1.8 q 0.4 5.5 6.2 8.2 t 14.4 2.7 a 52.9 52.9 0 0 0 18.7 -3 l 0.9 18 q -11.4 4.3 -29.8 4.3 t -25.9 -10.5 q -7.6 -10.5 -5.8 -27.1 a 53.9 53.9 0 0 1 4 -15.4 a 50.5 50.5 0 0 1 8.3 -13.3 a 35.4 35.4 0 0 1 13.6 -9.5 a 49.3 49.3 0 0 1 18.9 -3.4 Z m 3.3 23.2 a 4.5 4.5 0 0 0 -1.9 -3.9 A 7.5 7.5 0 0 0 534 649 a 18 18 0 0 0 -12.8 4.9 a 24.4 24.4 0 0 0 -7 12.7 a 18.8 18.8 0 0 0 6.4 0.9 a 27.5 27.5 0 0 0 13.5 -3.3 q 6 -3.3 6.6 -9.6 Z m 34.6 28.9 l 4.4 -34.5 H 567.6 l 2.1 -17.4 H 582 l 2.1 -16.6 l 25.8 -2.2 l -2.4 18.7 h 20.1 L 624.1 649 H 605.3 l -4.4 34.3 q -1.2 8.6 6.1 8.7 a 24.9 24.9 0 0 0 8.1 -1.5 l 0.3 16.5 a 45.5 45.5 0 0 1 -18.9 4 a 46.1 46.1 0 0 1 -7.3 -0.5 a 33.1 33.1 0 0 1 -5.6 -1.3 a 11 11 0 0 1 -4 -2.4 L 577 704 a 8.6 8.6 0 0 1 -1.6 -3.5 q -0.6 -2.3 -0.8 -3.8 a 23.3 23.3 0 0 1 -0.1 -4.3 c 0.1 -1.9 0.2 -3.3 0.3 -4.3 s 0.3 -2.4 0.6 -4.5 Z M 659.9 711 q -17.5 0 -24.9 -9.3 t -4.9 -31 q 2.5 -21.6 12.7 -31 t 27.8 -9.4 q 18.3 0 25.7 9.2 t 4.7 31.1 q -2.5 21.6 -12.7 31 T 659.9 711 Z m 8.4 -61.7 a 11.1 11.1 0 0 0 -9.1 4.4 q -3.5 4.4 -5 17 q -2.7 21.4 8.5 21.4 t 13.9 -21.4 q 1.5 -12.6 -0.7 -17 t -7.6 -4.4 Z m 68.9 3.3 l -7 56.6 H 705.3 l 9.6 -77.7 h 22.2 l -0.6 8.4 a 26.5 26.5 0 0 1 21 -9.7 a 27.9 27.9 0 0 1 7.9 1.2 l -5.2 19.8 a 51.2 51.2 0 0 0 -9.4 -1.2 Q 742.3 649.9 737.2 652.6 Z" />
  </g>
</svg>